<svg xmlns="http://www.w3.org/2000/svg" viewBox="0 0 150 150">
<!-- SVG created with Arrow, by QuiverAI (https://quiver.ai) -->
  <style type="text/css">.cls-0 {fill:#FC4602;}
.cls-1 {fill:#FFFFFF;}</style>
  <path class="cls-0" d="m90.8 11.6c-17.8 0-33.8 8.9-42.8 25.4-0.8 1.5-1.7 3.4-2.6 5.9l-0.4 0.1h-19.2c-1.9 0-3.7 1.6-3.6 3.5 0 2.2 1.5 3.7 3.6 4.2h24c1.3 0 1.7 1 1.7 2.3s-0.9 2.2-2.2 2.2h-7.3c-0.2 1.9-0.3 6.9-0.3 6.9h-28.4c-1.9 0.1-3.8 1.6-3.8 3.7s1.6 3.9 3.7 3.9h29.6c0.6 5.3 2.5 10.7 2.5 10.7h-16.7c-2.1 0.1-3.7 1.6-3.6 3.8 0.2 1.9 1.6 3.8 3.9 3.8h19.9c7.8 15.6 22 32.2 36.7 48 2.7 2.8 7.2 3 9.9 0.5 11.1-11.5 31.6-33.6 40-52.9 3.4-7.6 4.9-15.1 4.9-21.9 0-23.7-17.1-50.1-49.5-50.1z"/>
  <path class="cls-1" d="m117 41.8-22-12.3c-2.3-1.3-5.4-1.5-8.1 0l-21.9 12.5c-2 1.2-3.9 3.5-3.9 6.4v26.5c0.1 2.6 1.4 5 3.6 6.4 4.1 2.5 15.4 8.7 22 12.4 2.4 1.4 5.7 1.7 8.5 0.1l21.8-12.2c3-1.6 4-4.5 4-6.7v-26.4c0-3-1.7-5.5-4-6.7z"/>
  <polygon class="cls-0" points="71.9 53 88.6 62.8 88.6 82.7 71.9 73.3"/>
  <polygon class="cls-0" points="74 48.7 80.1 45.1 97.2 55.3 90.8 59.1"/>
  <polygon class="cls-0" points="84.4 42.9 90.8 39.5 107.6 48.9 101.6 52.6"/>
  <path class="cls-0" d="m109.6 53.7-5.9 3v7.1l-4.4 2.4v-7.1l-6.2 3.7v19.9l16.7-9.4v-20.3l-0.2 0.5z"/>
</svg>